<svg width="118" height="48" fill="none" xmlns="http://www.w3.org/2000/svg"><path d="M21.675 47.915c-3.7 0-7.441.228-11.12-.064C6.985 47.57 4.31 45.46 2.3 42.552a12.813 12.813 0 0 1-2.297-7.484c.014-6.811-.024-13.623.016-20.422C.046 9.63 2.34 5.848 6.624 3.263a10.13 10.13 0 0 1 5.317-1.416c3.425 0 6.854.027 10.277 0 5.706-.055 10.482 4.754 11.554 9.49.258 1.17.381 2.365.368 3.562-.02 6.712-.038 13.428 0 20.132.027 4.88-2.154 8.545-6.104 11.27-.318.217-.811.713-1.04.28-.23-.435-.353-1.184.337-1.633a10.39 10.39 0 0 0 3.48-3.737 5.08 5.08 0 0 0 .618-2.514V11.174c0-2.35-1.335-4-2.968-5.449-1.959-1.74-4.309-2.413-6.939-2.358-3.227.066-6.462-.037-9.69.035-4.033.087-6.83 2.162-8.672 5.626a3.382 3.382 0 0 0-.341 1.601c0 9.499-.03 18.998.021 28.494.014 2.458 1.686 4.064 3.474 5.46 1.663 1.3 3.625 1.88 5.746 1.886 2.446 0 4.896-.013 7.342.01 1.607.02 1.42-.37 2.271 1.436ZM65.247 13.97c-.051-1.967.096-4.367-.143-6.756-.07-.707.162-1.038.916-.962.453.045.913 0 1.371 0 1.47 0 1.484 0 1.813 1.419.169.726.433.55.82.16 1.593-1.612 3.479-2.159 5.705-1.577a3.84 3.84 0 0 1 2.262 1.582c.468.683.784.677 1.33.096 1.486-1.583 3.3-2.256 5.483-1.752 2 .47 3.42 2.04 3.791 4.098.226 1.276.329 2.57.308 3.865-.026 2.14-.026 4.28 0 6.422 0 .72-.157 1.082-.98 1.018a21.808 21.808 0 0 0-2.741 0c-.68.033-.907-.208-.899-.89.03-2.53 0-5.059.012-7.589 0-.648-.12-1.29-.353-1.895-.352-.952-.992-1.489-2.05-1.483a2.398 2.398 0 0 0-1.388.403c-.41.274-.724.668-.9 1.127a4.258 4.258 0 0 0-.25 1.623c0 2.592-.023 5.184.014 7.784.01.733-.233.973-.956.93a16.291 16.291 0 0 0-2.546 0c-.914.084-1.092-.311-1.077-1.12.043-2.266.018-4.535.014-6.81a6.912 6.912 0 0 0-.249-2.112c-.391-1.251-.979-1.796-2.081-1.815-1.142-.022-2.055.632-2.448 1.733a5.116 5.116 0 0 0-.212 1.732c0 2.462-.023 4.926.01 7.395 0 .756-.227 1.053-1.014.999a20.576 20.576 0 0 0-2.64 0c-.756.047-.948-.27-.938-.973.035-2.077.016-4.15.016-6.652ZM52.713 21.744c-6.232.105-9.988-4.302-10.276-9.924-.195-3.949.929-7.44 4.275-9.906C48.932.278 51.457-.226 54.185.09c2.938.35 5.278 1.67 6.95 4.131 2.867 4.22 2.595 12.543-2.712 15.934a10.034 10.034 0 0 1-5.71 1.59Zm5.152-11.092a8.223 8.223 0 0 0-.756-3.698c-.81-1.792-2.09-3.043-4.193-3.135-2.103-.091-3.54.917-4.441 2.725-.958 1.913-1.154 3.948-.844 6.05.196 1.333.587 2.579 1.433 3.657a4.583 4.583 0 0 0 1.698 1.342 4.614 4.614 0 0 0 4.213-.185 4.575 4.575 0 0 0 1.572-1.486c.987-1.534 1.322-3.223 1.322-5.272l-.004.002ZM79.615 27.622H42.627c-1.388 0-1.398 0-1.387-1.363.018-1.86-.252-1.656 1.665-1.656 24.56 0 49.12.004 73.68.012.439 0 1.146-.302 1.273.329.163.806.239 1.691-.068 2.487-.141.364-.65.195-.993.195-8.252.007-16.505.007-24.757 0l-12.425-.004ZM56.993 35.483c-.533.245-.568.66-.678 1.014-.979 3.145-1.958 6.296-2.937 9.438-.159.502-.14 1.27-.717 1.386-.783.158-1.617.04-2.43 0-.282-.014-.288-.303-.343-.523-.85-3.387-1.972-6.703-2.647-10.134-.061-.307-.104-.797-.447-.778-.503.033-.294.559-.311.868-.196 3.359-.392 6.72-.533 10.08-.031.717-.33.847-.96.855-2.383.033-2.436.047-2.299-2.32.263-4.49.608-8.973.886-13.46.037-.615.223-.857.857-.835 1.109.038 2.22.027 3.33 0 .526-.012.855.145 1.002.688.762 2.807 1.74 5.553 2.3 8.413.097.504.236 1 .377 1.495.057.194.06.504.358.486.298-.017.312-.28.363-.508.662-2.971 1.637-5.851 2.561-8.747.588-1.808.537-1.822 2.428-1.822.75 0 1.5.012 2.25 0 .55-.01.833.175.829.779-.028 4.503.587 8.977.632 13.476-.002.227.01.454.036.68.21 1.653.211 1.651-1.399 1.653-2.142 0-2.128 0-2.18-2.22-.07-3.114-.162-6.212-.248-9.318-.016-.167-.049-.356-.08-.646ZM105.289 16.294c0 1.49-.043 2.983.022 4.476.027.671-.177.866-.813.817a12.12 12.12 0 0 0-1.763 0c-.908.062-1.644.02-1.807-1.168-.086-.64-.529-.223-.76-.01-1.15 1.073-2.546 1.38-4.06 1.328-2.28-.078-4.018-1.314-4.578-3.266a4.896 4.896 0 0 1 .109-3.06 4.93 4.93 0 0 1 1.908-2.406c1.763-1.207 3.797-1.46 5.853-1.652.328-.031.784.179.935-.284a1.129 1.129 0 0 0-.392-1.226 2.057 2.057 0 0 0-1.02-.526 8.214 8.214 0 0 0-4.418.39c-1.22.441-1.248.443-1.567-.795-.437-1.697-.452-1.751 1.214-2.253 2.243-.677 4.526-.917 6.845-.323 2.447.625 4.112 2.83 4.196 5.68.045 1.425 0 2.853 0 4.282l.096-.004Zm-4.751-.917c-.176-.3.349-1.113-.64-1.084-.989.03-1.945.195-2.81.691-.42.224-.74.596-.898 1.042a1.89 1.89 0 0 0 .042 1.371c.421.909 1.345 1.296 2.366.99 1.318-.394 1.921-1.291 1.94-3.01Z" fill="#139DEB"/><path d="M17.977 24.896V6.722c0-1.4 0-1.4 1.453-1.397 1.01 0 2.02-.016 3.031.011 1.716.047 2.728 1.061 2.742 2.744.013 2.59 0 5.183.013 7.773a1.506 1.506 0 0 1-.501 1.195c-1.058 1.008-2.06 2.072-3.133 3.063a2.53 2.53 0 0 0-.852 2.041c.033 7.03.02 14.058.02 21.087 0 1.271 0 1.271-1.277 1.273-1.49 0-1.49 0-1.49-1.448l-.006-18.168Zm3.06-6.617c.754-.599 1.406-1.146 1.371-2.31-.092-2.582-.03-5.17-.025-7.754 0-.584-.06-1.213-.784-1.226-.76-.016-.752.636-.75 1.21v9.306c.008.232-.102.506.188.774ZM13.612 23.534c.875.917 1.66 1.726 2.428 2.551.258.279.266.646.266 1.01 0 5.477-.012 10.955 0 16.43 0 .69-.196 1.019-.942.993-1.206-.04-2.414.012-3.62-.027-1.743-.054-2.701-1.026-2.705-2.754-.014-5.412 0-10.824-.014-16.236a1.355 1.355 0 0 1 .449-1.113 34.556 34.556 0 0 0 1.942-1.915c.337-.356.605-.431.98-.048.319.335.798.722.29 1.117-.964.745-.858 1.728-.856 2.724v15.07c-.023.291-.008.584.045.87.098.364.358.652.783.596.366-.047.683-.243.725-.668.023-.257.01-.517.01-.778v-16.43c.007-.372-.073-.767.219-1.392ZM96.297 36.125c-1.114 1.255-2.2 2.53-3.352 3.76-.513.542-.588.922-.11 1.556 1.457 1.981 2.828 4.017 4.371 6.226-1.479 0-2.797.025-4.112-.016-.378-.01-.553-.39-.737-.704a68.505 68.505 0 0 0-1.852-3.08c-.22-.342-.308-1.019-.93-.768a1.444 1.444 0 0 0-.905 1.279c-.044.81-.044 1.62 0 2.43.039.68-.212.888-.891.901-2.76.055-2.76.074-2.76-2.662 0-4.635.014-9.269-.013-13.904 0-.734.17-1.022.979-1.024 2.677 0 2.677-.033 2.677 2.59v7.006c0 .243-.114.584.182.7.376.16.5-.229.65-.441.784-1.113 1.567-2.228 2.287-3.377a1.438 1.438 0 0 1 1.446-.737c.996.049 2 .014 2.998.014l.072.25Z" fill="#139DEB"/><path d="m4.798 10.055 11.045 11.092c.666.67.468 1.475.376 2.5-.98-.941-1.83-1.75-2.664-2.572-1.762-1.734-3.497-3.481-5.252-5.217-.223-.22-.432-.607-.783-.49-.437.147-.266.612-.266.941-.01 8.459-.015 16.918-.014 25.377 0 .307.172.778-.137.89-.392.153-.574-.326-.799-.583-1.214-1.339-1.87-2.824-1.855-4.721.075-8.652.034-17.306.034-25.958v-1.139l.315-.12ZM73.493 43.208c.028 1.294-.082 2.594.126 3.878.072.444-.073.598-.486.596H70.98c-.206 0-.429-.049-.493-.247-.292-.897-.653-.709-1.315-.265-1.635 1.096-3.942 1.018-5.226-.033-2.311-1.89-1.624-5.449 1.251-6.603 1.232-.494 2.515-.646 3.819-.73.313-.021.709.022.795-.389.07-.342-.149-.611-.374-.858-.363-.39-.848-.477-1.336-.5-1.175-.057-2.35-.022-3.448.488-.431.195-.613.15-.744-.35-.427-1.604-.46-1.633 1.143-2.172a9.174 9.174 0 0 1 4.633-.296c2.468.465 3.706 2.032 3.802 4.574.037.96.007 1.934.007 2.907Zm-3.546-.107c-.024-.492.153-1.156-.684-1.084-.706.06-1.435.156-2.07.496-.722.39-1.127 1.004-.877 1.843.24.808.876 1.059 1.677.994 1.143-.093 1.932-.992 1.954-2.25ZM104.652 42.73c-1.042 0-2.088.033-3.133-.011-.842-.035-.878.326-.588.943.539 1.123 1.555 1.557 2.685 1.639 1.061.084 2.154.148 3.19-.263.542-.216.869-.033.916.584.026.193.072.382.139.564.241.755.032 1.195-.808 1.363-2.953.609-5.918.926-8.235-1.468-2.013-2.08-2.248-5.606-.196-8.311 1.671-2.2 5.102-2.818 7.612-1.436 1.706.938 3.022 4.147 2.47 5.949-.143.47-.474.47-.837.473h-3.229l.014-.026Zm-1.579-2.549c.517 0 1.036-.02 1.553 0 .633.03.705-.273.531-.778-.28-.814-.834-1.277-1.7-1.363-.979-.09-1.78.195-2.293 1.096-.452.778-.337 1.018.55 1.033.453.022.907.014 1.359.012ZM108.34 13.765c0-2.234.023-4.476-.016-6.702 0-.584.153-.833.752-.808.599.025 1.175 0 1.763 0 1.797.03 1.423-.253 1.625 1.557.014.128 0 .26.012.39.029.207-.075.495.231.565.305.07.36-.194.466-.389.679-1.296 1.798-2.014 3.196-2.335 1.292-.292 1.557-.068 1.566 1.247 0 .779-.021 1.557 0 2.336.02.552-.195.758-.752.7a3.94 3.94 0 0 0-1.451.113c-1.735.471-2.575 1.463-2.604 3.265-.037 2.234-.061 4.476 0 6.703.029.973-.308 1.255-1.228 1.167a12.02 12.02 0 0 0-2.246 0c-.964.096-1.318-.194-1.281-1.218.08-2.199.026-4.402.026-6.603l-.059.012ZM29.65 10.29v20.688c0 2.43-.01 4.865 0 7.286.012 1.785-1.077 2.986-2.213 4.153-.31.316-.52.138-.52-.278v-.681c0-9.197-.007-18.393-.019-27.59 0-.8.183-1.404.784-1.959.6-.554 1.11-1.24 1.658-1.868l.31.25ZM111.18 41.972v-2.625c0-.543-.178-.907-.783-.84-.799.089-.94-.337-.875-.991.027-.324.027-.65 0-.973-.038-.506.195-.728.687-.675.809.085.979-.34.979-1.053 0-1.699.026-1.699 1.688-2.045 1.808-.376 1.808-.376 1.81 1.467 0 .259.017.52 0 .778-.047.627.235.907.863.849h.098c1.835.054 1.808.054 1.763 1.878-.018.617-.265.753-.825.768-1.897.053-1.897.07-1.897 1.946 0 .874-.022 1.752 0 2.626.052 1.523.403 1.895 1.915 1.909.628 0 .754.245.765.805.044 2.094.057 2.098-2.056 2.118-2.708.023-3.94-1.106-4.112-3.809-.045-.71 0-1.426 0-2.14l-.02.007ZM22.753 22.393c.736.778 1.47 1.545 2.214 2.31.26.268.232.593.232.912 0 7.064 0 14.128.013 21.193 0 .778-.233.982-.979.692-1.265-.49-1.735-1.157-1.735-2.712V23.206c0-.224.02-.446.03-.67l.225-.143ZM15.945 19.09c-.771-.852-1.54-1.708-2.315-2.559-.276-.301-.195-.667-.195-1.016V8.13c0-.584.084-1.274-.795-1.255-.88.02-.905.677-.903 1.33v5.15c0 .316-.03.633-.057 1.193-1.238-1.377-2.986-2.11-2.642-4.254.14-.852 0-1.751.041-2.62.057-1.361.886-2.245 2.26-2.311 1.375-.066 2.804-.025 4.205-.035.46 0 .783.17.771.665-.027 4.282.1 8.544-.066 12.815 0 .021-.047.041-.07.06l-.234.222ZM76.002 42.09c0-1.81.016-3.62-.01-5.43 0-.567.141-.858.764-.802.39.038.784.038 1.175 0 .875-.088 1.4.152 1.277 1.154-.024.195-.084.496.221.566.266.063.403-.148.515-.356.337-.628.893-1.01 1.508-1.325.442-.228.954-.413 1.412-.253 1.286.448.391 1.543.601 2.318.121.418.108.858-.617.912-2.48.195-3.088.886-3.092 3.355 0 1.557-.016 3.114 0 4.66.01.573-.184.777-.783.814-2.897.137-2.895.152-2.895-2.699v-2.919l-.076.004Z" fill="#139DEB"/></svg>