<svg aria-hidden="true" style="position: absolute; width: 0; height: 0; overflow: hidden;" version="1.1" xmlns="http://www.w3.org/2000/svg" xmlns:xlink="http://www.w3.org/1999/xlink">
<defs>
<symbol id="icon-logo" viewBox="0 0 79 32">
<path fill="#139deb" style="fill: var(--color1, #139deb)" d="M14.45 31.943c-2.467 0-4.961 0.152-7.413-0.043-2.38-0.187-4.163-1.594-5.503-3.533-0.959-1.362-1.532-3.054-1.532-4.881 0-0.038 0-0.076 0.001-0.114l-0 0.006c0.009-4.541-0.016-9.082 0.011-13.615 0.018-3.344 1.547-5.865 4.403-7.589 0.985-0.594 2.174-0.945 3.445-0.945 0.035 0 0.070 0 0.105 0.001l-0.005-0c2.283 0 4.569 0.018 6.851 0 3.804-0.037 6.988 3.169 7.703 6.327 0.172 0.78 0.254 1.577 0.245 2.375-0.013 4.475-0.025 8.952 0 13.421 0.018 3.253-1.436 5.697-4.069 7.513-0.212 0.145-0.541 0.475-0.693 0.187-0.153-0.29-0.235-0.789 0.225-1.089 0.969-0.631 1.753-1.47 2.302-2.456l0.018-0.035c0.26-0.468 0.412-1.026 0.412-1.62 0-0.020-0-0.040-0-0.059l0 0.003v-18.349c0-1.567-0.89-2.667-1.979-3.633-1.306-1.16-2.873-1.609-4.626-1.572-2.151 0.044-4.308-0.025-6.46 0.023-2.689 0.058-4.553 1.441-5.781 3.751-0.144 0.289-0.229 0.629-0.229 0.989 0 0.027 0 0.055 0.001 0.082l-0-0.004c0 6.333-0.020 12.665 0.014 18.996 0.009 1.639 1.124 2.709 2.316 3.64 1.109 0.867 2.417 1.253 3.831 1.257 1.631 0 3.264-0.009 4.895 0.007 1.071 0.013 0.947-0.247 1.514 0.957zM43.498 9.313c-0.034-1.311 0.064-2.911-0.095-4.504-0.047-0.471 0.108-0.692 0.611-0.641 0.302 0.030 0.609 0 0.914 0 0.98 0 0.989 0 1.209 0.946 0.113 0.484 0.289 0.367 0.547 0.107 1.062-1.075 2.319-1.439 3.803-1.051 0.631 0.16 1.156 0.537 1.502 1.046l0.006 0.009c0.312 0.455 0.523 0.451 0.887 0.064 0.991-1.055 2.2-1.504 3.655-1.168 1.333 0.313 2.28 1.36 2.527 2.732 0.151 0.851 0.219 1.713 0.205 2.577-0.017 1.427-0.017 2.853 0 4.281 0 0.48-0.105 0.721-0.653 0.679-0.273-0.018-0.592-0.029-0.914-0.029s-0.64 0.010-0.957 0.031l0.043-0.002c-0.453 0.022-0.605-0.139-0.599-0.593 0.020-1.687 0-3.373 0.008-5.059 0-0.432-0.080-0.86-0.235-1.263-0.235-0.635-0.661-0.993-1.367-0.989-0.011-0-0.024-0-0.038-0-0.331 0-0.638 0.101-0.893 0.273l0.006-0.004c-0.273 0.183-0.483 0.445-0.6 0.751-0.107 0.287-0.169 0.619-0.169 0.965 0 0.041 0.001 0.082 0.003 0.123l-0-0.006c0 1.728-0.015 3.456 0.009 5.189 0.007 0.489-0.155 0.649-0.637 0.62-0.254-0.021-0.55-0.033-0.849-0.033s-0.595 0.012-0.887 0.036l0.038-0.002c-0.609 0.056-0.728-0.207-0.718-0.747 0.029-1.511 0.012-3.023 0.009-4.54 0.002-0.051 0.003-0.111 0.003-0.171 0-0.44-0.062-0.866-0.177-1.27l0.008 0.032c-0.261-0.834-0.653-1.197-1.387-1.21-0.761-0.015-1.37 0.421-1.632 1.155-0.092 0.295-0.146 0.634-0.146 0.986 0 0.059 0.002 0.119 0.005 0.177l-0-0.008c0 1.641-0.015 3.284 0.007 4.93 0 0.504-0.151 0.702-0.676 0.666-0.263-0.018-0.57-0.028-0.88-0.028s-0.617 0.010-0.921 0.030l0.041-0.002c-0.504 0.031-0.632-0.18-0.625-0.649 0.023-1.385 0.011-2.767 0.011-4.435zM35.142 14.496c-4.155 0.070-6.659-2.868-6.851-6.616-0.13-2.633 0.619-4.96 2.85-6.604 1.48-1.091 3.163-1.427 4.982-1.216 1.959 0.233 3.519 1.113 4.633 2.754 1.911 2.813 1.73 8.362-1.808 10.623-1.022 0.666-2.274 1.063-3.618 1.063-0.066 0-0.133-0.001-0.199-0.003l0.010 0zM38.577 7.101c0.002-0.049 0.002-0.106 0.002-0.164 0-0.835-0.187-1.626-0.521-2.335l0.014 0.033c-0.54-1.195-1.393-2.029-2.795-2.090s-2.36 0.611-2.961 1.817c-0.639 1.275-0.769 2.632-0.563 4.033 0.131 0.889 0.391 1.719 0.955 2.438 0.299 0.38 0.678 0.683 1.113 0.887l0.019 0.008c0.377 0.177 0.818 0.281 1.284 0.281 0.561 0 1.086-0.15 1.539-0.412l-0.015 0.008c0.428-0.247 0.78-0.581 1.041-0.979l0.007-0.012c0.658-1.023 0.881-2.149 0.881-3.515l-0.003 0.001zM53.077 18.415h-24.659c-0.925 0-0.932 0-0.925-0.909 0.012-1.24-0.168-1.104 1.11-1.104 16.373 0 32.747 0.003 49.12 0.008 0.293 0 0.764-0.201 0.849 0.219 0.109 0.537 0.159 1.127-0.045 1.658-0.094 0.243-0.433 0.13-0.662 0.13-5.501 0.005-11.003 0.005-16.505 0l-8.283-0.003zM37.995 23.655c-0.355 0.163-0.379 0.44-0.452 0.676-0.653 2.097-1.305 4.197-1.958 6.292-0.106 0.335-0.093 0.847-0.478 0.924-0.522 0.105-1.078 0.027-1.62 0-0.188-0.009-0.192-0.202-0.229-0.349-0.567-2.258-1.315-4.469-1.765-6.756-0.041-0.205-0.069-0.531-0.298-0.519-0.335 0.022-0.196 0.373-0.207 0.579-0.131 2.239-0.261 4.48-0.355 6.72-0.021 0.478-0.22 0.565-0.64 0.57-1.589 0.022-1.624 0.031-1.533-1.547 0.175-2.993 0.405-5.982 0.591-8.973 0.025-0.41 0.149-0.571 0.571-0.557 0.739 0.025 1.48 0.018 2.22 0 0.351-0.008 0.57 0.097 0.668 0.459 0.508 1.871 1.16 3.702 1.533 5.609 0.065 0.336 0.157 0.667 0.251 0.997 0.038 0.129 0.040 0.336 0.239 0.324s0.208-0.187 0.242-0.339c0.441-1.981 1.091-3.901 1.707-5.831 0.392-1.205 0.358-1.215 1.619-1.215 0.5 0 1 0.008 1.5 0 0.367-0.007 0.555 0.117 0.553 0.519-0.019 3.002 0.391 5.985 0.421 8.984-0.001 0.151 0.007 0.303 0.024 0.453 0.14 1.102 0.141 1.101-0.933 1.102-1.428 0-1.419 0-1.453-1.48-0.047-2.076-0.108-4.141-0.165-6.212-0.011-0.111-0.033-0.237-0.053-0.431zM70.193 10.863c0 0.993-0.029 1.989 0.015 2.984 0.018 0.447-0.118 0.577-0.542 0.545-0.176-0.014-0.381-0.021-0.588-0.021s-0.412 0.008-0.615 0.023l0.027-0.002c-0.605 0.041-1.096 0.013-1.205-0.779-0.057-0.427-0.353-0.149-0.507-0.007-0.767 0.715-1.697 0.92-2.707 0.885-1.52-0.052-2.679-0.876-3.052-2.177-0.082-0.272-0.129-0.586-0.129-0.91 0-0.406 0.074-0.794 0.209-1.153l-0.007 0.022c0.252-0.669 0.694-1.218 1.26-1.596l0.012-0.008c1.175-0.805 2.531-0.973 3.902-1.101 0.219-0.021 0.523 0.119 0.623-0.189 0.021-0.066 0.033-0.142 0.033-0.22 0-0.242-0.115-0.458-0.293-0.596l-0.002-0.001c-0.183-0.173-0.414-0.297-0.671-0.349l-0.009-0.001c-0.303-0.060-0.652-0.094-1.009-0.094-0.696 0-1.361 0.13-1.974 0.366l0.037-0.013c-0.813 0.294-0.832 0.295-1.045-0.53-0.291-1.131-0.301-1.167 0.809-1.502 1.495-0.451 3.017-0.611 4.563-0.215 1.631 0.417 2.741 1.887 2.797 3.787 0.030 0.95 0 1.902 0 2.855l0.064-0.003zM67.025 10.251c-0.117-0.2 0.233-0.742-0.427-0.723s-1.297 0.13-1.873 0.461c-0.28 0.149-0.493 0.397-0.599 0.695-0.046 0.125-0.072 0.27-0.072 0.421 0 0.178 0.037 0.348 0.104 0.501l-0.003-0.008c0.281 0.606 0.897 0.864 1.577 0.66 0.879-0.263 1.281-0.861 1.293-2.007z"></path>
<path fill="#139deb" style="fill: var(--color1, #139deb)" d="M11.985 16.597v-12.116c0-0.933 0-0.933 0.969-0.931 0.673 0 1.347-0.011 2.021 0.007 1.144 0.031 1.819 0.707 1.828 1.829 0.009 1.727 0 3.455 0.009 5.182 0.001 0.014 0.001 0.031 0.001 0.048 0 0.297-0.129 0.564-0.334 0.748l-0.001 0.001c-0.705 0.672-1.373 1.381-2.089 2.042-0.351 0.311-0.571 0.762-0.571 1.265 0 0.034 0.001 0.067 0.003 0.101l-0-0.005c0.022 4.687 0.013 9.372 0.013 14.058 0 0.847 0 0.847-0.851 0.849-0.993 0-0.993 0-0.993-0.965l-0.004-12.112zM14.025 12.186c0.503-0.399 0.937-0.764 0.914-1.54-0.061-1.721-0.020-3.447-0.017-5.169 0-0.389-0.040-0.809-0.523-0.817-0.507-0.011-0.501 0.424-0.5 0.807v6.204c0.005 0.155-0.068 0.337 0.125 0.516zM9.075 15.689c0.583 0.611 1.107 1.151 1.619 1.701 0.172 0.186 0.177 0.431 0.177 0.673 0 3.651-0.008 7.303 0 10.953 0 0.46-0.131 0.679-0.628 0.662-0.804-0.027-1.609 0.008-2.413-0.018-1.162-0.036-1.801-0.684-1.803-1.836-0.009-3.608 0-7.216-0.009-10.824-0.002-0.020-0.003-0.044-0.003-0.068 0-0.267 0.116-0.508 0.301-0.673l0.001-0.001c0.455-0.416 0.878-0.832 1.283-1.264l0.011-0.012c0.225-0.237 0.403-0.287 0.653-0.032 0.213 0.223 0.532 0.481 0.193 0.745-0.643 0.497-0.572 1.152-0.571 1.816v10.047c-0.015 0.194-0.005 0.389 0.030 0.58 0.065 0.243 0.239 0.435 0.522 0.397 0.244-0.031 0.455-0.162 0.483-0.445 0.015-0.171 0.007-0.345 0.007-0.519v-10.953c0.005-0.248-0.049-0.511 0.146-0.928zM64.198 24.083c-0.743 0.837-1.467 1.687-2.235 2.507-0.342 0.361-0.392 0.615-0.073 1.037 0.971 1.321 1.885 2.678 2.914 4.151-0.986 0-1.865 0.017-2.741-0.011-0.252-0.007-0.369-0.26-0.491-0.469-0.509-0.904-0.918-1.574-1.343-2.233l0.109 0.18c-0.147-0.228-0.205-0.679-0.62-0.512-0.345 0.141-0.586 0.467-0.603 0.851l-0 0.002c-0.029 0.54-0.029 1.080 0 1.62 0.026 0.453-0.141 0.592-0.594 0.601-1.84 0.037-1.84 0.049-1.84-1.775 0-3.090 0.009-6.179-0.009-9.269 0-0.489 0.113-0.681 0.653-0.683 1.785 0 1.785-0.022 1.785 1.727v4.671c0 0.162-0.076 0.389 0.121 0.467 0.251 0.107 0.333-0.153 0.433-0.294 0.523-0.742 1.045-1.485 1.525-2.251 0.166-0.3 0.48-0.499 0.841-0.499 0.043 0 0.086 0.003 0.127 0.008l-0.005-0.001c0.664 0.033 1.333 0.009 1.999 0.009l0.048 0.167z"></path>
<path fill="#139deb" style="fill: var(--color1, #139deb)" d="M3.199 6.703l7.363 7.395c0.444 0.447 0.312 0.983 0.251 1.667-0.653-0.627-1.22-1.167-1.776-1.715-1.175-1.156-2.331-2.321-3.501-3.478-0.149-0.147-0.288-0.405-0.522-0.327-0.291 0.098-0.177 0.408-0.177 0.627-0.007 5.639-0.010 11.279-0.009 16.918 0 0.205 0.115 0.519-0.091 0.593-0.261 0.102-0.383-0.217-0.533-0.389-0.809-0.893-1.247-1.883-1.237-3.147 0.050-5.768 0.023-11.537 0.023-17.305v-0.759l0.21-0.080zM48.995 28.805c0.019 0.863-0.055 1.729 0.084 2.585 0.048 0.296-0.049 0.399-0.324 0.397h-1.435c-0.137 0-0.286-0.033-0.329-0.165-0.195-0.598-0.435-0.473-0.877-0.177-1.090 0.731-2.628 0.679-3.484-0.022-1.541-1.26-1.083-3.633 0.834-4.402 0.821-0.329 1.677-0.431 2.546-0.487 0.209-0.014 0.473 0.015 0.53-0.259 0.047-0.228-0.099-0.407-0.249-0.572-0.242-0.26-0.565-0.318-0.891-0.333-0.783-0.038-1.567-0.015-2.299 0.325-0.287 0.13-0.409 0.1-0.496-0.233-0.285-1.069-0.307-1.089 0.762-1.448 0.574-0.196 1.234-0.31 1.922-0.31 0.413 0 0.816 0.041 1.206 0.119l-0.039-0.006c1.645 0.31 2.471 1.355 2.535 3.049 0.025 0.64 0.005 1.289 0.005 1.938zM46.631 28.734c-0.016-0.328 0.102-0.771-0.456-0.723-0.471 0.040-0.957 0.104-1.38 0.331-0.481 0.26-0.751 0.669-0.585 1.229 0.16 0.539 0.584 0.706 1.118 0.663 0.762-0.062 1.288-0.661 1.303-1.5zM69.768 28.487c-0.695 0-1.392 0.022-2.089-0.007-0.561-0.023-0.585 0.217-0.392 0.629 0.359 0.749 1.037 1.038 1.79 1.093 0.707 0.056 1.436 0.099 2.127-0.175 0.361-0.144 0.579-0.022 0.611 0.389 0.017 0.129 0.048 0.255 0.093 0.376 0.161 0.503 0.021 0.797-0.539 0.909-1.969 0.406-3.945 0.617-5.49-0.979-1.342-1.387-1.499-3.737-0.131-5.541 1.114-1.467 3.401-1.879 5.075-0.957 1.137 0.625 2.015 2.765 1.647 3.966-0.095 0.313-0.316 0.313-0.558 0.315h-2.153l0.009-0.017zM68.715 26.787c0.345 0 0.691-0.013 1.035 0 0.422 0.020 0.47-0.182 0.354-0.519-0.187-0.543-0.556-0.851-1.133-0.909-0.653-0.060-1.187 0.13-1.529 0.731-0.301 0.519-0.225 0.679 0.367 0.689 0.302 0.015 0.605 0.009 0.906 0.008zM72.227 9.177c0-1.489 0.015-2.984-0.011-4.468 0-0.389 0.102-0.555 0.501-0.539s0.783 0 1.175 0c1.198 0.020 0.949-0.169 1.083 1.038 0.009 0.085 0 0.173 0.008 0.26 0.019 0.138-0.050 0.33 0.154 0.377s0.24-0.129 0.311-0.259c0.453-0.864 1.199-1.343 2.131-1.557 0.861-0.195 1.038-0.045 1.044 0.831 0 0.519-0.014 1.038 0 1.557 0.013 0.368-0.13 0.505-0.501 0.467-0.085-0.010-0.183-0.015-0.283-0.015-0.243 0-0.479 0.033-0.703 0.095l0.018-0.004c-1.157 0.314-1.717 0.975-1.736 2.177-0.025 1.489-0.041 2.984 0 4.469 0.019 0.649-0.205 0.837-0.819 0.778-0.224-0.022-0.485-0.035-0.749-0.035s-0.524 0.013-0.781 0.038l0.033-0.003c-0.643 0.064-0.879-0.129-0.854-0.812 0.053-1.466 0.017-2.935 0.017-4.402l-0.039 0.008zM19.767 6.86v13.792c0 1.62-0.007 3.243 0 4.857 0.008 1.19-0.718 1.991-1.475 2.769-0.207 0.211-0.347 0.092-0.347-0.185v-0.454c0-6.131-0.005-12.262-0.013-18.393 0-0.533 0.122-0.936 0.523-1.306s0.74-0.827 1.105-1.245l0.207 0.167zM74.12 27.981v-1.75c0-0.362-0.119-0.605-0.522-0.56-0.533 0.059-0.627-0.225-0.583-0.661 0.018-0.216 0.018-0.433 0-0.649-0.025-0.337 0.13-0.485 0.458-0.45 0.539 0.057 0.653-0.227 0.653-0.702 0-1.133 0.017-1.133 1.125-1.363 1.205-0.251 1.205-0.251 1.207 0.978 0 0.173 0.011 0.347 0 0.519-0.031 0.418 0.157 0.605 0.575 0.566h0.065c1.223 0.036 1.205 0.036 1.175 1.252-0.012 0.411-0.177 0.502-0.55 0.512-1.265 0.035-1.265 0.047-1.265 1.297 0 0.583-0.015 1.168 0 1.751 0.035 1.015 0.269 1.263 1.277 1.273 0.419 0 0.503 0.163 0.51 0.537 0.029 1.396 0.038 1.399-1.371 1.412-1.805 0.015-2.627-0.737-2.741-2.539-0.030-0.473 0-0.951 0-1.427l-0.013 0.005zM15.169 14.929c0.491 0.519 0.98 1.030 1.476 1.54 0.173 0.179 0.155 0.395 0.155 0.608 0 4.709 0 9.419 0.009 14.129 0 0.519-0.155 0.655-0.653 0.461-0.843-0.327-1.157-0.771-1.157-1.808v-14.388c0-0.149 0.013-0.297 0.020-0.447l0.15-0.095zM10.63 12.727c-0.514-0.568-1.027-1.139-1.543-1.706-0.184-0.201-0.13-0.445-0.13-0.677v-4.923c0-0.389 0.056-0.849-0.53-0.837s-0.603 0.451-0.602 0.887v3.433c0 0.211-0.020 0.422-0.038 0.795-0.825-0.918-1.991-1.407-1.761-2.836 0.093-0.568 0-1.167 0.027-1.747 0.038-0.907 0.591-1.497 1.507-1.541s1.869-0.017 2.803-0.023c0.307 0 0.522 0.113 0.514 0.443-0.018 2.855 0.067 5.696-0.044 8.543 0 0.014-0.031 0.027-0.047 0.040l-0.156 0.148zM50.668 28.060c0-1.207 0.011-2.413-0.007-3.62 0-0.378 0.094-0.572 0.509-0.535 0.26 0.025 0.523 0.025 0.783 0 0.583-0.059 0.933 0.101 0.851 0.769-0.016 0.13-0.056 0.331 0.147 0.377 0.177 0.042 0.269-0.099 0.343-0.237 0.225-0.419 0.595-0.673 1.005-0.883 0.295-0.152 0.636-0.275 0.941-0.169 0.857 0.299 0.261 1.029 0.401 1.545 0.081 0.279 0.072 0.572-0.411 0.608-1.653 0.13-2.059 0.591-2.061 2.237 0 1.038-0.011 2.076 0 3.107 0.007 0.382-0.123 0.518-0.522 0.543-1.931 0.091-1.93 0.101-1.93-1.799v-1.946l-0.051 0.003z"></path>
</symbol>
<symbol id="icon-arrow" viewBox="0 0 32 32"><path d="m15.68 6.4-1.856 1.92 4.928 5.056-15.872.384v4.48l15.872.384-4.928 5.056 1.92 1.92 1.856 1.92L29.12 16 17.536 4.416 15.68 6.4z"/></symbol>
</defs>
</svg>
